# xmcd
#
# Track frame offsets: 
#        150
#        11368
#        21476
#        34288
#        46192
#        58705
#        68869
#        79741
#        90180
#        102845
#        114120
#        126601
#        138725
#        148728
#        160191
#        168611
#        176309
#        188382
#        198644
#        209510
#        219242
#        228610
#        240490
#        249409
#
# Disc length: 3437 seconds
#
# Revision: 0
# Processed by: cddbd v1.5.2PL0 Copyright (c) Steve Scherf et al.
# Submitted via: ExactAudioCopy v0.99pb5
#
DISCID=4d0d6b18
DTITLE=Johnny Cash - Original Sun Singles '55-'58
DYEAR=2009
DGENRE=Country
TTITLE0=Cry! Cry! Cry!
TTITLE1=Hey, Porter!
TTITLE2=Folsom Prison Blues
TTITLE3=So Doggone Lonesome
TTITLE4=I Walk the Line
TTITLE5=Get Rhythm
TTITLE6=Train of Love
TTITLE7=There You Go
TTITLE8=Next In Line
TTITLE9=Don't Make Me Go
TTITLE10=Give My Love to Rose
TTITLE11=Home of the Blues
TTITLE12=Ballad of a Teenage Queen
TTITLE13=Big River
TTITLE14=Guess Things Happen That Way
TTITLE15=Come in Stranger
TTITLE16=You're the Nearest Thing to Heaven
TTITLE17=The Ways of a Woman in Love
TTITLE18=I Just Thought You'd Like to Know
TTITLE19=It's Just About Time
TTITLE20=Luther Played the Boogie
TTITLE21=Thanks a Lot
TTITLE22=Katy Too
TTITLE23=I Forgot To Remember To Forget
EXTD=
EXTT0=
EXTT1=
EXTT2=
EXTT3=
EXTT4=
EXTT5=
EXTT6=
EXTT7=
EXTT8=
EXTT9=
EXTT10=
EXTT11=
EXTT12=
EXTT13=
EXTT14=
EXTT15=
EXTT16=
EXTT17=
EXTT18=
EXTT19=
EXTT20=
EXTT21=
EXTT22=
EXTT23=
PLAYORDER=
